<?xml version="1.0" encoding="UTF-8"?><svg xmlns="http://www.w3.org/2000/svg" xmlns:xlink="http://www.w3.org/1999/xlink" width="450" zoomAndPan="magnify" viewBox="0 0 450 449.999984" height="449.999984" preserveAspectRatio="xMidYMid meet" version="1.0"><defs><clipPath id="clip-0"><path d="M 65 0 L 385.160156 0 L 385.160156 450 L 65 450 Z M 65 0 " clip-rule="nonzero"/></clipPath></defs><path fill="rgb(24.708557%, 11.759949%, 11.369324%)" d="M 383.550781 370.917969 C 383.550781 372.011719 383.488281 373.105469 383.363281 374.195312 C 383.234375 375.289062 383.042969 376.378906 382.789062 377.464844 C 382.535156 378.554688 382.21875 379.640625 381.835938 380.722656 C 381.457031 381.804688 381.011719 382.878906 380.507812 383.953125 C 380 385.023438 379.433594 386.09375 378.800781 387.152344 C 378.171875 388.214844 377.480469 389.265625 376.726562 390.3125 C 375.972656 391.359375 375.160156 392.398438 374.285156 393.425781 C 373.414062 394.457031 372.480469 395.476562 371.484375 396.488281 C 370.492188 397.496094 369.441406 398.496094 368.332031 399.484375 C 367.222656 400.472656 366.058594 401.449219 364.835938 402.414062 C 363.613281 403.378906 362.332031 404.328125 361 405.269531 C 359.667969 406.207031 358.277344 407.128906 356.835938 408.039062 C 355.394531 408.949219 353.902344 409.839844 352.355469 410.71875 C 350.8125 411.597656 349.214844 412.460938 347.570312 413.304688 C 345.925781 414.152344 344.230469 414.976562 342.488281 415.789062 C 340.746094 416.597656 338.957031 417.390625 337.125 418.164062 C 335.289062 418.9375 333.410156 419.691406 331.488281 420.425781 C 329.566406 421.160156 327.601562 421.875 325.597656 422.566406 C 323.589844 423.261719 321.546875 423.933594 319.464844 424.585938 C 317.378906 425.234375 315.257812 425.867188 313.101562 426.472656 C 310.945312 427.082031 308.753906 427.664062 306.527344 428.226562 C 304.304688 428.789062 302.046875 429.328125 299.757812 429.84375 C 297.472656 430.359375 295.15625 430.851562 292.808594 431.320312 C 290.464844 431.785156 288.09375 432.230469 285.695312 432.648438 C 283.300781 433.066406 280.878906 433.460938 278.4375 433.828125 C 275.996094 434.195312 273.53125 434.539062 271.050781 434.855469 C 268.566406 435.175781 266.066406 435.464844 263.550781 435.730469 C 261.035156 435.996094 258.503906 436.238281 255.960938 436.449219 C 253.414062 436.664062 250.859375 436.851562 248.292969 437.011719 C 245.726562 437.171875 243.152344 437.304688 240.570312 437.410156 C 237.988281 437.519531 235.402344 437.597656 232.8125 437.652344 C 230.21875 437.707031 227.628906 437.734375 225.035156 437.734375 C 222.4375 437.734375 219.847656 437.707031 217.253906 437.652344 C 214.664062 437.597656 212.078125 437.519531 209.496094 437.410156 C 206.914062 437.304688 204.339844 437.171875 201.773438 437.011719 C 199.207031 436.851562 196.652344 436.664062 194.109375 436.449219 C 191.5625 436.238281 189.03125 435.996094 186.515625 435.730469 C 184 435.464844 181.5 435.175781 179.019531 434.855469 C 176.535156 434.539062 174.074219 434.195312 171.628906 433.828125 C 169.1875 433.460938 166.769531 433.066406 164.371094 432.648438 C 161.972656 432.230469 159.601562 431.785156 157.257812 431.320312 C 154.914062 430.851562 152.597656 430.359375 150.308594 429.84375 C 148.019531 429.328125 145.761719 428.789062 143.539062 428.226562 C 141.3125 427.664062 139.121094 427.082031 136.964844 426.472656 C 134.808594 425.867188 132.6875 425.234375 130.605469 424.585938 C 128.519531 423.933594 126.476562 423.261719 124.46875 422.566406 C 122.464844 421.875 120.5 421.160156 118.578125 420.425781 C 116.65625 419.691406 114.777344 418.9375 112.945312 418.164062 C 111.109375 417.390625 109.320312 416.597656 107.578125 415.789062 C 105.835938 414.976562 104.140625 414.152344 102.496094 413.304688 C 100.851562 412.460938 99.253906 411.597656 97.710938 410.71875 C 96.164062 409.839844 94.671875 408.949219 93.230469 408.039062 C 91.789062 407.128906 90.402344 406.207031 89.066406 405.269531 C 87.734375 404.328125 86.453125 403.378906 85.230469 402.414062 C 84.007812 401.449219 82.84375 400.472656 81.734375 399.484375 C 80.625 398.496094 79.574219 397.496094 78.582031 396.488281 C 77.589844 395.476562 76.65625 394.457031 75.78125 393.425781 C 74.90625 392.398438 74.09375 391.359375 73.339844 390.3125 C 72.585938 389.265625 71.894531 388.214844 71.265625 387.152344 C 70.632812 386.09375 70.066406 385.023438 69.558594 383.953125 C 69.054688 382.878906 68.609375 381.804688 68.230469 380.722656 C 67.847656 379.640625 67.53125 378.554688 67.277344 377.464844 C 67.023438 376.378906 66.832031 375.289062 66.707031 374.195312 C 66.578125 373.105469 66.515625 372.011719 66.515625 370.917969 C 66.515625 369.824219 66.578125 368.730469 66.707031 367.640625 C 66.832031 366.546875 67.023438 365.457031 67.277344 364.367188 C 67.53125 363.28125 67.847656 362.195312 68.230469 361.113281 C 68.609375 360.03125 69.054688 358.953125 69.558594 357.882812 C 70.066406 356.808594 70.632812 355.742188 71.265625 354.683594 C 71.894531 353.621094 72.585938 352.570312 73.339844 351.523438 C 74.09375 350.476562 74.90625 349.4375 75.78125 348.40625 C 76.65625 347.378906 77.589844 346.359375 78.582031 345.347656 C 79.574219 344.339844 80.625 343.339844 81.734375 342.351562 C 82.84375 341.363281 84.007812 340.386719 85.230469 339.421875 C 86.453125 338.457031 87.734375 337.503906 89.066406 336.566406 C 90.402344 335.628906 91.789062 334.707031 93.230469 333.796875 C 94.671875 332.886719 96.164062 331.992188 97.710938 331.117188 C 99.253906 330.238281 100.851562 329.375 102.496094 328.53125 C 104.140625 327.683594 105.835938 326.855469 107.578125 326.046875 C 109.320312 325.238281 111.109375 324.445312 112.945312 323.671875 C 114.777344 322.898438 116.65625 322.144531 118.578125 321.410156 C 120.5 320.675781 122.464844 319.960938 124.46875 319.269531 C 126.476562 318.574219 128.519531 317.902344 130.605469 317.25 C 132.6875 316.597656 134.808594 315.96875 136.964844 315.363281 C 139.121094 314.753906 141.3125 314.167969 143.539062 313.609375 C 145.761719 313.046875 148.019531 312.507812 150.308594 311.992188 C 152.597656 311.476562 154.914062 310.984375 157.257812 310.515625 C 159.601562 310.050781 161.972656 309.605469 164.371094 309.1875 C 166.769531 308.769531 169.1875 308.375 171.628906 308.007812 C 174.074219 307.640625 176.535156 307.296875 179.019531 306.980469 C 181.5 306.660156 184 306.371094 186.515625 306.105469 C 189.03125 305.839844 191.5625 305.597656 194.109375 305.386719 C 196.652344 305.171875 199.207031 304.984375 201.773438 304.824219 C 204.339844 304.664062 206.914062 304.53125 209.496094 304.421875 C 212.078125 304.316406 214.664062 304.234375 217.253906 304.183594 C 219.847656 304.128906 222.4375 304.101562 225.035156 304.101562 C 227.628906 304.101562 230.21875 304.128906 232.8125 304.183594 C 235.402344 304.234375 237.988281 304.316406 240.570312 304.421875 C 243.152344 304.53125 245.726562 304.664062 248.292969 304.824219 C 250.859375 304.984375 253.414062 305.171875 255.960938 305.386719 C 258.503906 305.597656 261.035156 305.839844 263.550781 306.105469 C 266.066406 306.371094 268.566406 306.660156 271.050781 306.980469 C 273.53125 307.296875 275.996094 307.640625 278.4375 308.007812 C 280.878906 308.375 283.300781 308.769531 285.695312 309.1875 C 288.09375 309.605469 290.464844 310.050781 292.808594 310.515625 C 295.15625 310.984375 297.472656 311.476562 299.757812 311.992188 C 302.046875 312.507812 304.304688 313.046875 306.527344 313.609375 C 308.753906 314.167969 310.945312 314.753906 313.101562 315.363281 C 315.257812 315.96875 317.378906 316.597656 319.464844 317.25 C 321.546875 317.902344 323.589844 318.574219 325.597656 319.269531 C 327.601562 319.960938 329.566406 320.675781 331.488281 321.410156 C 333.410156 322.144531 335.289062 322.898438 337.125 323.671875 C 338.957031 324.445312 340.746094 325.238281 342.488281 326.046875 C 344.230469 326.855469 345.925781 327.683594 347.570312 328.53125 C 349.214844 329.375 350.8125 330.238281 352.355469 331.117188 C 353.902344 331.992188 355.394531 332.886719 356.835938 333.796875 C 358.277344 334.707031 359.667969 335.628906 361 336.566406 C 362.332031 337.503906 363.613281 338.457031 364.835938 339.421875 C 366.058594 340.386719 367.222656 341.363281 368.332031 342.351562 C 369.441406 343.339844 370.492188 344.339844 371.484375 345.347656 C 372.480469 346.359375 373.414062 347.378906 374.285156 348.40625 C 375.160156 349.4375 375.972656 350.476562 376.726562 351.523438 C 377.480469 352.570312 378.171875 353.621094 378.800781 354.683594 C 379.433594 355.742188 380 356.808594 380.507812 357.882812 C 381.011719 358.953125 381.457031 360.03125 381.835938 361.113281 C 382.21875 362.195312 382.535156 363.28125 382.789062 364.367188 C 383.042969 365.457031 383.234375 366.546875 383.363281 367.640625 C 383.488281 368.730469 383.550781 369.824219 383.550781 370.917969 Z M 383.550781 370.917969 " fill-opacity="1" fill-rule="nonzero"/><path fill="rgb(24.708557%, 11.759949%, 11.369324%)" d="M 349.171875 330.03125 C 369.699219 304.5625 379.214844 273.027344 379.667969 239.921875 C 380.019531 213.726562 373.894531 188.085938 362.378906 164.832031 C 362.785156 164.351562 363.109375 163.824219 363.347656 163.242188 C 373.453125 138.738281 374.226562 111.855469 372.488281 85.730469 C 370.667969 58.324219 366.039062 32.253906 352.515625 8.007812 C 350.09375 3.671875 344.214844 5.175781 342.683594 9.296875 C 336.539062 25.824219 328.855469 41.605469 319.628906 56.636719 C 310.816406 70.980469 300.875 85.390625 288.394531 96.847656 C 278.304688 93.042969 267.9375 90.257812 257.296875 88.496094 C 246.65625 86.734375 235.949219 86.027344 225.167969 86.375 C 214.386719 86.019531 203.675781 86.71875 193.03125 88.476562 C 182.386719 90.230469 172.015625 93.007812 161.917969 96.808594 C 149.4375 85.375 139.5 70.96875 130.683594 56.597656 C 121.464844 41.574219 113.789062 25.804688 107.648438 9.28125 C 106.117188 5.164062 100.21875 3.671875 97.8125 7.992188 C 84.289062 32.242188 79.664062 58.308594 77.84375 85.714844 C 76.109375 111.828125 76.875 138.707031 86.980469 163.226562 C 87.226562 163.832031 87.566406 164.382812 87.996094 164.875 C 67.367188 207.070312 63.71875 258.742188 83.351562 301.925781 C 88.382812 312.871094 94.824219 322.914062 102.671875 332.054688 C 102.101562 344.261719 101.75 356.910156 105.871094 368.59375 C 109.957031 380.164062 117.84375 388.203125 127.890625 394.925781 C 147.710938 408.207031 170.898438 415.6875 194.621094 417.371094 C 194.746094 418.304688 194.910156 419.230469 195.117188 420.148438 C 195.320312 421.066406 195.570312 421.972656 195.855469 422.867188 C 196.144531 423.761719 196.472656 424.644531 196.839844 425.507812 C 197.207031 426.375 197.609375 427.222656 198.054688 428.050781 C 198.496094 428.882812 198.976562 429.691406 199.492188 430.476562 C 200.007812 431.261719 200.558594 432.023438 201.144531 432.761719 C 201.730469 433.5 202.347656 434.207031 202.996094 434.886719 C 203.644531 435.570312 204.320312 436.222656 205.027344 436.839844 C 205.734375 437.460938 206.46875 438.050781 207.226562 438.601562 C 207.988281 439.15625 208.773438 439.675781 209.578125 440.160156 C 210.386719 440.644531 211.210938 441.089844 212.058594 441.5 C 212.90625 441.910156 213.769531 442.28125 214.648438 442.613281 C 215.53125 442.945312 216.421875 443.234375 217.328125 443.488281 C 218.238281 443.738281 219.152344 443.949219 220.078125 444.117188 C 221.003906 444.285156 221.933594 444.414062 222.871094 444.5 C 223.808594 444.582031 224.746094 444.625 225.6875 444.628906 C 226.628906 444.628906 227.566406 444.585938 228.503906 444.503906 C 229.441406 444.417969 230.371094 444.292969 231.296875 444.125 C 232.222656 443.957031 233.140625 443.75 234.046875 443.5 C 234.953125 443.25 235.847656 442.957031 236.730469 442.628906 C 237.609375 442.296875 238.472656 441.929688 239.320312 441.519531 C 240.167969 441.113281 240.996094 440.667969 241.804688 440.183594 C 242.609375 439.699219 243.394531 439.183594 244.15625 438.628906 C 244.917969 438.074219 245.652344 437.488281 246.359375 436.871094 C 247.066406 436.25 247.746094 435.601562 248.394531 434.921875 C 249.042969 434.238281 249.660156 433.53125 250.246094 432.796875 C 250.832031 432.058594 251.386719 431.300781 251.902344 430.511719 C 252.417969 429.726562 252.898438 428.921875 253.34375 428.089844 C 253.789062 427.261719 254.195312 426.414062 254.5625 425.550781 C 254.933594 424.683594 255.261719 423.804688 255.550781 422.910156 C 255.839844 422.015625 256.085938 421.109375 256.292969 420.191406 C 256.5 419.273438 256.667969 418.347656 256.792969 417.414062 C 280.722656 415.8125 304.132812 408.316406 324.117188 394.925781 C 333.875 388.390625 341.625 380.65625 345.796875 369.5 C 350.417969 357.144531 349.894531 343.652344 349.269531 330.707031 C 349.25 330.480469 349.21875 330.253906 349.171875 330.03125 Z M 349.171875 330.03125 " fill-opacity="1" fill-rule="nonzero"/><g clip-path="url(#clip-0)"><path fill="rgb(24.708557%, 11.759949%, 11.369324%)" d="M 225.710938 450 C 224.703125 449.996094 223.691406 449.953125 222.6875 449.867188 C 221.679688 449.78125 220.679688 449.65625 219.683594 449.488281 C 218.6875 449.320312 217.699219 449.113281 216.71875 448.863281 C 215.738281 448.613281 214.773438 448.324219 213.816406 447.996094 C 212.863281 447.667969 211.921875 447.300781 210.996094 446.894531 C 210.070312 446.488281 209.164062 446.046875 208.273438 445.566406 C 207.386719 445.085938 206.519531 444.570312 205.671875 444.019531 C 204.828125 443.464844 204.003906 442.882812 203.207031 442.261719 C 202.40625 441.640625 201.636719 440.992188 200.890625 440.308594 C 200.148438 439.625 199.433594 438.914062 198.746094 438.171875 C 198.058594 437.429688 197.40625 436.664062 196.78125 435.867188 C 196.160156 435.070312 195.570312 434.253906 195.015625 433.410156 C 194.460938 432.566406 193.9375 431.699219 193.453125 430.8125 C 192.972656 429.925781 192.523438 429.023438 192.113281 428.097656 C 191.703125 427.175781 191.332031 426.238281 191 425.285156 C 190.667969 424.328125 190.375 423.363281 190.121094 422.386719 C 166.378906 420.046875 143.917969 412.136719 124.894531 399.394531 C 112.496094 391.105469 104.859375 381.886719 100.796875 370.378906 C 96.691406 358.753906 96.660156 346.496094 97.203125 333.910156 C 89.636719 324.820312 83.386719 314.902344 78.453125 304.15625 C 59.347656 262.128906 60.683594 210.34375 81.929688 165.074219 C 70.675781 137.652344 70.960938 108.078125 72.472656 85.359375 C 73.984375 62.644531 77.691406 33.015625 93.113281 5.371094 C 93.578125 4.496094 94.160156 3.703125 94.859375 3 C 95.558594 2.292969 96.34375 1.703125 97.21875 1.230469 C 98.089844 0.753906 99.011719 0.417969 99.984375 0.214844 C 100.957031 0.0117188 101.9375 -0.046875 102.929688 0.0390625 C 104.007812 0.125 105.054688 0.359375 106.066406 0.742188 C 107.078125 1.128906 108.019531 1.644531 108.882812 2.296875 C 109.746094 2.949219 110.503906 3.710938 111.148438 4.578125 C 111.796875 5.445312 112.308594 6.386719 112.6875 7.402344 C 118.707031 23.605469 126.234375 39.074219 135.269531 53.808594 C 142.199219 65.085938 151.53125 79.25 163.1875 90.625 C 173.125 87.089844 183.300781 84.507812 193.722656 82.882812 C 204.144531 81.257812 214.625 80.613281 225.164062 80.953125 C 235.699219 80.609375 246.175781 81.246094 256.59375 82.867188 C 267.007812 84.488281 277.183594 87.0625 287.117188 90.59375 C 298.777344 79.226562 308.105469 65.066406 315.039062 53.773438 C 324.078125 39.039062 331.609375 23.570312 337.636719 7.367188 C 338.015625 6.355469 338.53125 5.417969 339.179688 4.554688 C 339.828125 3.6875 340.582031 2.929688 341.449219 2.28125 C 342.3125 1.632812 343.25 1.117188 344.261719 0.734375 C 345.273438 0.351562 346.316406 0.117188 347.394531 0.0351562 C 348.382812 -0.0507812 349.363281 0.0078125 350.335938 0.207031 C 351.308594 0.410156 352.230469 0.75 353.105469 1.222656 C 353.976562 1.695312 354.761719 2.285156 355.464844 2.992188 C 356.164062 3.695312 356.746094 4.488281 357.210938 5.363281 C 372.628906 33.011719 376.34375 62.628906 377.855469 85.351562 C 379.367188 108.070312 379.648438 137.585938 368.4375 164.972656 C 379.65625 188.589844 385.398438 214.457031 385.046875 239.972656 C 384.5625 275.175781 374.089844 306.828125 354.707031 331.710938 C 355.273438 343.625 355.78125 358.167969 350.832031 371.378906 C 346.703125 382.421875 339.160156 391.324219 327.085938 399.398438 C 307.917969 412.269531 285.238281 420.183594 261.285156 422.445312 C 261.027344 423.421875 260.734375 424.382812 260.398438 425.335938 C 260.066406 426.289062 259.695312 427.222656 259.28125 428.144531 C 258.871094 429.066406 258.425781 429.96875 257.941406 430.855469 C 257.453125 431.738281 256.933594 432.601562 256.378906 433.445312 C 255.824219 434.285156 255.234375 435.101562 254.609375 435.898438 C 253.988281 436.691406 253.332031 437.457031 252.648438 438.195312 C 251.960938 438.9375 251.246094 439.644531 250.5 440.328125 C 249.757812 441.007812 248.988281 441.65625 248.1875 442.277344 C 247.390625 442.894531 246.570312 443.476562 245.726562 444.027344 C 244.878906 444.578125 244.011719 445.09375 243.125 445.574219 C 242.238281 446.050781 241.332031 446.492188 240.40625 446.898438 C 239.484375 447.304688 238.542969 447.671875 237.589844 448 C 236.636719 448.324219 235.671875 448.613281 234.691406 448.863281 C 233.714844 449.113281 232.726562 449.320312 231.734375 449.488281 C 230.738281 449.65625 229.738281 449.78125 228.734375 449.867188 C 227.726562 449.953125 226.722656 449.996094 225.710938 450 Z M 102.367188 10.878906 C 88.105469 36.613281 84.640625 64.5625 83.210938 86.074219 C 81.757812 107.679688 81.472656 135.738281 91.933594 161.164062 C 91.957031 161.214844 91.984375 161.261719 92.015625 161.304688 C 92.367188 161.703125 92.652344 162.144531 92.875 162.625 C 93.09375 163.109375 93.242188 163.613281 93.3125 164.140625 C 93.382812 164.667969 93.375 165.191406 93.289062 165.71875 C 93.203125 166.242188 93.046875 166.742188 92.8125 167.21875 C 71.792969 210.253906 70.09375 259.765625 88.265625 299.699219 C 93.085938 310.1875 99.257812 319.8125 106.78125 328.566406 C 107.707031 329.644531 108.132812 330.890625 108.058594 332.304688 C 107.464844 344.996094 107.269531 356.34375 110.96875 366.800781 C 114.238281 376.128906 120.386719 383.425781 130.90625 390.46875 C 149.476562 402.902344 171.644531 410.332031 195.023438 412.019531 C 195.644531 412.0625 196.238281 412.207031 196.804688 412.457031 C 197.371094 412.703125 197.882812 413.042969 198.335938 413.464844 C 198.785156 413.890625 199.152344 414.378906 199.4375 414.929688 C 199.71875 415.480469 199.902344 416.066406 199.980469 416.679688 C 200.085938 417.449219 200.222656 418.21875 200.390625 418.976562 C 200.5625 419.738281 200.769531 420.488281 201.007812 421.226562 C 201.246094 421.96875 201.515625 422.699219 201.820312 423.414062 C 202.125 424.132812 202.460938 424.832031 202.828125 425.519531 C 203.195312 426.207031 203.59375 426.875 204.023438 427.527344 C 204.449219 428.175781 204.90625 428.808594 205.390625 429.417969 C 205.875 430.027344 206.386719 430.613281 206.921875 431.179688 C 207.460938 431.742188 208.019531 432.28125 208.605469 432.792969 C 209.191406 433.308594 209.800781 433.792969 210.429688 434.253906 C 211.058594 434.710938 211.707031 435.140625 212.375 435.542969 C 213.042969 435.941406 213.726562 436.3125 214.429688 436.652344 C 215.128906 436.988281 215.847656 437.296875 216.574219 437.570312 C 217.304688 437.84375 218.042969 438.085938 218.792969 438.292969 C 219.542969 438.503906 220.304688 438.675781 221.070312 438.816406 C 221.835938 438.957031 222.605469 439.0625 223.382812 439.132812 C 224.15625 439.203125 224.933594 439.238281 225.714844 439.238281 C 226.492188 439.238281 227.269531 439.203125 228.046875 439.136719 C 228.820312 439.066406 229.59375 438.960938 230.359375 438.824219 C 231.125 438.683594 231.886719 438.511719 232.636719 438.304688 C 233.386719 438.097656 234.125 437.859375 234.855469 437.585938 C 235.585938 437.3125 236.300781 437.003906 237.003906 436.667969 C 237.703125 436.328125 238.390625 435.960938 239.058594 435.5625 C 239.726562 435.164062 240.375 434.734375 241.007812 434.277344 C 241.636719 433.816406 242.246094 433.332031 242.832031 432.820312 C 243.417969 432.308594 243.980469 431.769531 244.519531 431.207031 C 245.054688 430.644531 245.566406 430.058594 246.054688 429.449219 C 246.539062 428.839844 246.996094 428.210938 247.425781 427.558594 C 247.851562 426.910156 248.25 426.242188 248.621094 425.554688 C 248.988281 424.867188 249.324219 424.167969 249.628906 423.453125 C 249.9375 422.734375 250.207031 422.007812 250.449219 421.265625 C 250.6875 420.523438 250.894531 419.773438 251.066406 419.015625 C 251.238281 418.253906 251.378906 417.488281 251.480469 416.71875 C 251.5625 416.101562 251.746094 415.519531 252.03125 414.964844 C 252.316406 414.414062 252.683594 413.925781 253.136719 413.5 C 253.589844 413.074219 254.101562 412.738281 254.671875 412.492188 C 255.242188 412.246094 255.835938 412.097656 256.457031 412.058594 C 280.050781 410.476562 302.417969 403.011719 321.144531 390.46875 C 331.378906 383.613281 337.433594 376.570312 340.78125 367.625 C 345.101562 356.070312 344.492188 342.851562 343.929688 331.164062 L 343.886719 330.902344 C 343.761719 330.148438 343.796875 329.402344 343.992188 328.664062 C 344.1875 327.925781 344.527344 327.261719 345.007812 326.667969 C 363.71875 303.441406 373.855469 273.417969 374.308594 239.839844 C 374.640625 215.097656 368.828125 189.96875 357.554688 167.191406 C 357.324219 166.71875 357.160156 166.222656 357.074219 165.703125 C 356.984375 165.1875 356.972656 164.664062 357.039062 164.144531 C 357.101562 163.621094 357.242188 163.117188 357.453125 162.636719 C 357.664062 162.15625 357.941406 161.714844 358.28125 161.3125 C 358.320312 161.269531 358.347656 161.21875 358.371094 161.164062 C 368.855469 135.738281 368.546875 107.679688 367.09375 86.074219 C 365.636719 64.546875 362.191406 36.578125 347.9375 10.875 C 347.832031 10.945312 347.75 11.039062 347.699219 11.15625 C 341.433594 28.015625 333.59375 44.109375 324.1875 59.4375 C 316.4375 72.066406 305.777344 88.175781 292.007812 100.777344 C 291.640625 101.113281 291.238281 101.390625 290.792969 101.613281 C 290.347656 101.835938 289.882812 101.996094 289.394531 102.089844 C 288.90625 102.183594 288.414062 102.210938 287.917969 102.167969 C 287.421875 102.125 286.941406 102.015625 286.476562 101.84375 C 276.71875 98.152344 266.691406 95.453125 256.398438 93.75 C 246.105469 92.046875 235.746094 91.367188 225.320312 91.710938 L 224.964844 91.710938 C 214.539062 91.363281 204.179688 92.042969 193.886719 93.75 C 183.59375 95.453125 173.566406 98.152344 163.808594 101.84375 C 163.34375 102.015625 162.863281 102.125 162.367188 102.167969 C 161.871094 102.210938 161.378906 102.183594 160.890625 102.089844 C 160.402344 101.996094 159.9375 101.835938 159.492188 101.613281 C 159.046875 101.390625 158.644531 101.113281 158.277344 100.777344 C 144.523438 88.179688 133.855469 72.066406 126.097656 59.4375 C 116.699219 44.101562 108.867188 28.003906 102.605469 11.140625 C 102.550781 11.03125 102.472656 10.945312 102.367188 10.878906 Z M 102.367188 10.878906 " fill-opacity="1" fill-rule="nonzero"/></g><path fill="rgb(100%, 100%, 100%)" d="M 77.691406 253.0625 C 76.851562 263.179688 80.511719 273.085938 84.300781 282.5 C 90.820312 298.578125 98.144531 314.570312 109.015625 328.105469 C 126.003906 349.292969 150.933594 363.277344 177.226562 370.125 C 203.519531 376.96875 231.191406 377.125 258.195312 374.089844 C 278.855469 371.769531 299.976562 367.347656 317.027344 355.457031 C 321.277344 352.4375 325.273438 349.113281 329.019531 345.484375 C 333.546875 341.164062 337.796875 336.589844 341.777344 331.761719 C 345.753906 326.933594 349.433594 321.886719 352.808594 316.621094 C 356.1875 311.355469 359.234375 305.90625 361.960938 300.273438 C 364.6875 294.644531 367.066406 288.871094 369.101562 282.957031 C 371.292969 276.566406 373.082031 269.972656 373.414062 263.226562 C 374.421875 242.945312 362.472656 224.554688 351.007812 207.792969 C 331.515625 179.292969 311.722656 150.449219 285.769531 127.640625 C 268.742188 112.675781 247.253906 100.023438 224.714844 102.449219 C 205.5 104.527344 189.261719 117.085938 174.261719 129.265625 C 136.175781 160.21875 97.425781 193.5 77.667969 238.398438 " fill-opacity="1" fill-rule="nonzero"/><path fill="rgb(100%, 100%, 100%)" d="M 77.246094 253.0625 C 76.480469 267.542969 83.027344 281.308594 88.785156 294.242188 C 94.542969 307.179688 101.3125 319.765625 110.496094 330.601562 C 127.367188 350.503906 151.199219 363.625 176.195312 370.328125 C 206.035156 378.316406 237.972656 377.84375 268.328125 373.234375 C 281.601562 371.214844 294.859375 367.988281 306.929688 361.96875 C 319.96875 355.457031 330.785156 345.363281 340.195312 334.355469 C 348.816406 324.285156 356.058594 313.300781 361.921875 301.414062 C 367.984375 289.113281 373.835938 275.125 373.925781 261.226562 C 374.003906 248.242188 368.894531 235.988281 362.527344 224.894531 C 354.90625 211.640625 345.753906 199.136719 336.933594 186.660156 C 320.054688 162.785156 301.675781 138.820312 278.300781 120.910156 C 257.691406 105.121094 232.484375 95.945312 207.410156 106.71875 C 193.226562 112.816406 181.21875 123.015625 169.375 132.695312 C 157.128906 142.699219 145.007812 152.890625 133.476562 163.703125 C 110.636719 185.140625 90.160156 209.355469 77.265625 238.152344 C 77.035156 238.671875 77.804688 239.121094 78.042969 238.601562 C 99.269531 191.125 140.753906 155.996094 180.847656 124.554688 C 191.710938 116.03125 203.480469 107.800781 217.035156 104.308594 C 231.957031 100.464844 247.1875 103.726562 260.683594 110.648438 C 285.132812 123.195312 304.480469 145.273438 321.089844 166.671875 C 329.742188 177.8125 337.835938 189.390625 345.800781 201.023438 C 353.191406 211.789062 360.957031 222.519531 366.460938 234.414062 C 373.527344 249.660156 374.507812 264.675781 369.34375 280.691406 C 365.234375 293.324219 359.582031 305.222656 352.386719 316.386719 C 336.929688 340.5 315.863281 360.34375 287.835938 368.222656 C 260.816406 375.800781 230.5625 377.347656 202.742188 374.324219 C 172.355469 371.019531 142.105469 360.046875 119.550781 338.871094 C 108.234375 328.246094 99.800781 315.261719 93.035156 301.375 C 85.921875 286.757812 77.226562 269.710938 78.105469 253.0625 C 78.132812 252.488281 77.238281 252.488281 77.207031 253.0625 Z M 77.246094 253.0625 " fill-opacity="1" fill-rule="nonzero"/><path fill="rgb(96.859741%, 24.308777%, 22.349548%)" d="M 112.375 336.0625 C 111.589844 338.9375 111.078125 341.863281 110.832031 344.832031 C 110.589844 347.804688 110.617188 350.773438 110.921875 353.738281 C 111.226562 356.707031 111.796875 359.617188 112.636719 362.480469 C 113.480469 365.339844 114.574219 368.097656 115.925781 370.757812 C 123.042969 384.652344 136.691406 394.359375 151.394531 399.605469 C 166.097656 404.855469 181.921875 406.09375 197.511719 406.574219 C 200.601562 395.28125 211.285156 386.503906 222.96875 385.65625 C 234.652344 384.808594 246.484375 391.953125 251.175781 402.679688 C 252.304688 405.261719 253.4375 408.378906 256.15625 409.117188 C 257.523438 409.484375 258.96875 409.117188 260.332031 408.757812 L 289.75 400.953125 C 307.375 396.277344 326.695312 390.386719 336.214844 374.839844 C 343.277344 363.316406 343.289062 348.941406 342.484375 335.457031 C 311.402344 362.355469 270.707031 377.921875 229.582031 378.628906 C 188.457031 379.335938 147.265625 365.175781 115.28125 339.355469 " fill-opacity="1" fill-rule="nonzero"/><path fill="rgb(96.859741%, 24.308777%, 22.349548%)" d="M 111.9375 335.941406 C 106.835938 356.078125 114.359375 376.101562 130.59375 388.8125 C 149.554688 403.671875 174.242188 406.253906 197.511719 407.019531 C 197.738281 407.023438 197.882812 406.914062 197.941406 406.695312 C 204.464844 385.578125 231.617188 379.082031 246.398438 396.003906 C 250.273438 400.441406 251.242188 409.628906 258.25 409.664062 C 262.382812 409.664062 267.746094 407.242188 271.773438 406.191406 L 288.734375 401.691406 C 303.5 397.761719 319.640625 393.453125 330.804688 382.355469 C 343.335938 369.886719 343.886719 352.039062 342.917969 335.457031 C 342.910156 335.261719 342.816406 335.125 342.636719 335.050781 C 342.457031 334.972656 342.296875 335.003906 342.152344 335.136719 C 310.925781 361.847656 270.742188 377.476562 229.578125 378.183594 C 188.414062 378.890625 147.71875 364.664062 115.589844 339.035156 C 115.144531 338.683594 114.503906 339.3125 114.957031 339.671875 C 175.171875 387.703125 261.054688 391.835938 325.292969 349.074219 C 328.632812 346.84375 331.898438 344.507812 335.082031 342.058594 C 336.570312 340.914062 338.832031 338.210938 340.507812 337.699219 C 343.183594 336.878906 342.257812 339.863281 342.320312 342.246094 C 342.582031 352.683594 341.835938 363.5625 336.773438 372.941406 C 327.6875 389.753906 307.625 395.710938 290.441406 400.296875 C 284.886719 401.78125 279.328125 403.246094 273.769531 404.722656 C 268.210938 406.199219 257.480469 411.148438 253.085938 405.730469 C 250.988281 403.144531 250.214844 399.433594 248.101562 396.695312 C 245.996094 393.996094 243.496094 391.722656 240.605469 389.878906 C 239.882812 389.414062 239.136719 388.980469 238.375 388.582031 C 237.609375 388.183594 236.828125 387.820312 236.03125 387.492188 C 235.234375 387.160156 234.425781 386.871094 233.601562 386.613281 C 232.78125 386.355469 231.945312 386.136719 231.105469 385.957031 C 230.261719 385.773438 229.414062 385.628906 228.558594 385.523438 C 227.703125 385.417969 226.84375 385.351562 225.980469 385.320312 C 225.121094 385.292969 224.257812 385.304688 223.398438 385.351562 C 222.539062 385.398438 221.683594 385.484375 220.828125 385.609375 C 219.976562 385.734375 219.128906 385.898438 218.292969 386.097656 C 217.453125 386.300781 216.625 386.539062 215.808594 386.8125 C 214.992188 387.085938 214.191406 387.398438 213.402344 387.746094 C 212.613281 388.089844 211.839844 388.472656 211.085938 388.886719 C 210.328125 389.304688 209.59375 389.753906 208.878906 390.234375 C 208.164062 390.714844 207.472656 391.230469 206.804688 391.773438 C 206.136719 392.316406 205.492188 392.890625 204.875 393.488281 C 204.257812 394.089844 203.667969 394.71875 203.105469 395.371094 C 201.980469 396.660156 200.972656 398.03125 200.089844 399.496094 C 199.292969 400.804688 198.601562 403.710938 197.558594 404.859375 C 194.71875 407.972656 183.46875 405.445312 179.628906 405.066406 C 166.847656 403.808594 153.988281 401.152344 142.460938 395.289062 C 120.238281 383.988281 106.40625 361.292969 112.773438 336.1875 C 112.800781 336.070312 112.78125 335.960938 112.71875 335.859375 C 112.65625 335.761719 112.566406 335.695312 112.453125 335.664062 C 112.339844 335.632812 112.230469 335.644531 112.125 335.699219 C 112.019531 335.753906 111.945312 335.835938 111.90625 335.949219 Z M 111.9375 335.941406 " fill-opacity="1" fill-rule="nonzero"/><path fill="rgb(100%, 64.709473%, 30.198669%)" d="M 229.652344 388.390625 C 228.226562 387.949219 226.769531 387.675781 225.277344 387.570312 C 223.789062 387.464844 222.308594 387.527344 220.832031 387.765625 C 219.359375 388 217.929688 388.402344 216.550781 388.96875 C 215.167969 389.535156 213.867188 390.253906 212.652344 391.121094 C 207.71875 394.703125 204.796875 400.429688 202.8125 406.195312 C 202.164062 408.082031 201.585938 410.046875 201.710938 412.042969 C 201.847656 414.203125 202.796875 416.230469 203.796875 418.152344 C 207.875 426.042969 214.226562 434.140625 223.089844 434.777344 C 227.488281 435.097656 231.8125 433.464844 235.726562 431.449219 C 239.894531 429.304688 243.988281 426.5 246.09375 422.3125 C 248.453125 417.628906 247.894531 411.902344 245.851562 407.074219 C 243.804688 402.242188 240.421875 398.121094 237.085938 394.070312 C 235.230469 391.820312 233.320312 389.527344 230.785156 388.046875 " fill-opacity="1" fill-rule="nonzero"/><path fill="rgb(100%, 64.709473%, 30.198669%)" d="M 229.757812 387.957031 C 216.886719 384.53125 207.390625 392.800781 202.992188 404.351562 C 200.242188 411.554688 201.808594 416.421875 205.925781 422.789062 C 208.949219 427.457031 212.886719 431.992188 218.183594 434.089844 C 227.871094 437.921875 242.917969 431.136719 246.886719 421.527344 C 251.785156 409.664062 240.4375 394.050781 231.019531 387.660156 C 230.535156 387.335938 230.085938 388.117188 230.5625 388.433594 C 238.707031 393.957031 248.007812 406.5 247.128906 416.703125 C 246.132812 428.484375 229.066406 437.289062 218.539062 433.199219 C 213.9375 431.40625 210.433594 427.738281 207.644531 423.761719 C 203.796875 418.273438 201.34375 413.195312 203.214844 406.320312 C 206.46875 394.457031 216.84375 385.460938 229.507812 388.832031 C 229.621094 388.855469 229.730469 388.835938 229.832031 388.773438 C 229.933594 388.714844 230 388.625 230.03125 388.511719 C 230.0625 388.394531 230.050781 388.285156 229.996094 388.179688 C 229.9375 388.078125 229.855469 388.003906 229.742188 387.964844 Z M 229.757812 387.957031 " fill-opacity="1" fill-rule="nonzero"/><path fill="rgb(100%, 64.709473%, 30.198669%)" d="M 79.613281 264.847656 C 85.988281 256.785156 96.753906 253.371094 107.027344 252.941406 C 121.164062 252.347656 135.03125 256.527344 149.121094 257.789062 C 163.214844 259.046875 182.558594 257.828125 191.710938 247.027344 C 199.246094 238.109375 200.523438 225.5625 200.433594 213.886719 C 200.296875 194.046875 196.023438 172.90625 198.761719 153.257812 C 200.261719 142.464844 199.933594 131.917969 204.789062 122.15625 C 207.175781 117.34375 211.574219 112.359375 216.703125 110.71875 C 222.558594 108.832031 229.105469 112.171875 232.695312 117.175781 C 236.285156 122.179688 237.570312 128.417969 238.476562 134.5 C 242.71875 162.898438 241.101562 185.960938 245.582031 214.324219 C 247.910156 229.046875 248.976562 249.386719 260.835938 258.441406 C 270.402344 265.753906 287.527344 268.679688 298.632812 264.019531 C 313.324219 257.847656 324.226562 241.5 340.15625 241.988281 C 348.277344 242.238281 355.730469 247.226562 360.550781 253.761719 C 365.371094 260.296875 367.898438 268.253906 369.617188 276.191406 C 370.824219 273.144531 371.886719 270.046875 372.804688 266.898438 C 373.722656 263.75 374.488281 260.5625 375.105469 257.34375 C 375.726562 254.125 376.191406 250.882812 376.503906 247.617188 C 376.816406 244.351562 376.976562 241.082031 376.980469 237.800781 C 376.988281 234.523438 376.839844 231.25 376.535156 227.984375 C 376.234375 224.71875 375.78125 221.476562 375.171875 218.253906 C 374.566406 215.03125 373.808594 211.84375 372.902344 208.691406 C 371.996094 205.542969 370.945312 202.441406 369.746094 199.386719 C 365.664062 189.101562 359.832031 179.101562 359.421875 168.046875 C 359.0625 158.503906 362.8125 149.363281 365.082031 140.089844 C 371.480469 114.105469 366.453125 86.832031 361.414062 60.558594 C 358.722656 46.550781 355.917969 32.226562 348.589844 19.992188 C 334.339844 44.285156 319.0625 67.933594 302.757812 90.945312 C 299.21875 95.941406 295.003906 101.308594 288.9375 102.21875 C 283.605469 103.019531 278.523438 100.078125 273.601562 97.859375 C 247.230469 86.003906 216.742188 93.78125 188.464844 99.796875 C 179.609375 101.683594 170.160156 103.335938 161.703125 100.113281 C 156.902344 98.285156 152.808594 95.011719 148.96875 91.609375 C 143.585938 86.839844 138.539062 81.742188 133.824219 76.3125 C 129.109375 70.882812 124.769531 65.171875 120.800781 59.179688 C 116.828125 53.183594 113.265625 46.957031 110.109375 40.496094 C 106.953125 34.035156 104.230469 27.398438 101.941406 20.585938 C 99.109375 24.582031 96.578125 28.757812 94.351562 33.117188 C 92.121094 37.476562 90.214844 41.972656 88.628906 46.605469 C 87.046875 51.238281 85.800781 55.960938 84.894531 60.773438 C 83.992188 65.585938 83.433594 70.4375 83.226562 75.328125 C 82.453125 94.988281 87.335938 114.371094 92.199219 133.417969 C 90.339844 130.039062 88.902344 126.484375 87.894531 122.757812 C 86.890625 119.03125 86.339844 115.238281 86.246094 111.382812 C 85.53125 116.050781 85.375 120.738281 85.769531 125.445312 C 86.164062 130.152344 87.101562 134.75 88.582031 139.238281 C 90.605469 145.347656 93.636719 151.199219 94.445312 157.578125 C 95.816406 168.429688 90.625 178.894531 86.691406 189.066406 C 84.390625 195.082031 82.492188 201.222656 81.003906 207.488281 C 79.511719 213.753906 78.4375 220.085938 77.785156 226.496094 C 77.128906 232.902344 76.898438 239.324219 77.089844 245.757812 C 77.285156 252.195312 77.902344 258.59375 78.9375 264.949219 " fill-opacity="1" fill-rule="nonzero"/><path fill="rgb(100%, 64.709473%, 30.198669%)" d="M 79.925781 265.167969 C 95.5 246.859375 122.058594 254.582031 142.34375 257.414062 C 156.261719 259.351562 172.894531 260.085938 185.46875 252.695312 C 198.859375 244.84375 200.976562 227.988281 200.878906 213.867188 C 200.757812 193.191406 196.804688 172.84375 199.34375 152.164062 C 200.699219 141.085938 200.492188 128.753906 207.046875 119.171875 C 211.316406 112.929688 218.589844 108.308594 226.082031 112.09375 C 231.710938 114.9375 234.800781 120.554688 236.414062 126.417969 C 241.871094 146.074219 240.902344 167.84375 242.3125 188.039062 C 243.476562 204.96875 245.058594 222.980469 249.441406 239.433594 C 253.230469 253.671875 261.890625 262.601562 276.5 265.679688 C 283.804688 267.21875 291.820312 267.3125 298.824219 264.433594 C 306.929688 261.097656 313.460938 254.917969 320.53125 249.902344 C 329.679688 243.4375 340.042969 239.726562 350.621094 245.464844 C 361.929688 251.617188 366.53125 264.476562 369.199219 276.292969 C 369.304688 276.777344 369.917969 276.671875 370.0625 276.292969 C 371.960938 271.453125 373.496094 266.5 374.667969 261.433594 C 375.835938 256.367188 376.632812 251.242188 377.054688 246.0625 C 377.472656 240.878906 377.511719 235.691406 377.171875 230.503906 C 376.832031 225.316406 376.113281 220.179688 375.019531 215.097656 C 372.597656 204.058594 367.683594 194.347656 363.652344 183.898438 C 358.804688 171.304688 359.84375 160.417969 363.476562 147.691406 C 369.65625 126.054688 369.25 104.628906 365.8125 82.527344 C 362.558594 61.578125 359.75 38.441406 348.992188 19.777344 C 348.953125 19.707031 348.898438 19.65625 348.828125 19.617188 C 348.757812 19.578125 348.683594 19.558594 348.605469 19.558594 C 348.527344 19.558594 348.453125 19.578125 348.382812 19.617188 C 348.316406 19.65625 348.261719 19.707031 348.21875 19.777344 C 336.636719 39.457031 324.402344 58.738281 311.519531 77.613281 C 306.003906 85.675781 298.371094 101.933594 286.960938 101.914062 C 281.585938 101.914062 276.667969 98.601562 271.84375 96.628906 C 266.820312 94.59375 261.632812 93.15625 256.277344 92.316406 C 237.003906 89.261719 217.378906 93.183594 198.542969 97.199219 C 187.464844 99.558594 175.074219 103.667969 163.804688 100.363281 C 153.582031 97.367188 145.144531 87.96875 138.074219 80.390625 C 130.078125 71.773438 123.070312 62.414062 117.054688 52.3125 C 111.035156 42.214844 106.144531 31.597656 102.371094 20.464844 C 102.316406 20.277344 102.191406 20.171875 102 20.144531 C 101.808594 20.117188 101.660156 20.183594 101.554688 20.347656 C 89.398438 37.789062 82.65625 58.542969 82.695312 79.863281 C 82.695312 91.238281 84.527344 102.539062 86.9375 113.628906 C 88.226562 119.535156 89.847656 125.765625 91.410156 131.324219 C 89.578125 124.90625 87.027344 118.671875 86.695312 111.371094 C 86.695312 110.886719 85.886719 110.726562 85.8125 111.253906 C 84.058594 124.242188 86.699219 135.289062 91.144531 147.410156 C 93.984375 155.128906 94.957031 162.390625 92.925781 170.484375 C 91.332031 176.851562 88.566406 182.839844 86.25 188.953125 C 83.964844 194.992188 82.078125 201.152344 80.59375 207.4375 C 79.113281 213.722656 78.042969 220.078125 77.390625 226.5 C 76.734375 232.925781 76.5 239.363281 76.6875 245.820312 C 76.871094 252.273438 77.476562 258.6875 78.496094 265.0625 C 78.589844 265.636719 79.464844 265.394531 79.363281 264.828125 C 76.753906 248.53125 76.859375 232.257812 79.691406 216 C 82.320312 201.105469 88.601562 187.984375 92.980469 173.675781 C 94.585938 168.433594 95.5625 162.9375 94.867188 157.449219 C 93.898438 149.953125 90.019531 143.222656 88.082031 135.992188 C 86.855469 131.472656 86.171875 126.871094 86.027344 122.1875 C 85.96875 120.382812 86.152344 118.570312 86.125 116.769531 C 86.089844 114.710938 85.601562 111.996094 86.074219 115.550781 C 86.90625 121.921875 88.816406 127.953125 91.808594 133.636719 C 92.046875 134.09375 92.75 133.773438 92.628906 133.292969 C 86.464844 109.117188 80.546875 84.363281 85.609375 59.402344 C 87.921875 48.113281 92.019531 37.519531 97.910156 27.613281 C 98.578125 26.484375 100.332031 22.375 101.65625 22.535156 C 102.6875 22.664062 104.117188 27.957031 104.53125 29.003906 C 106.351562 33.566406 108.371094 38.058594 110.589844 42.480469 C 115.089844 51.414062 120.355469 59.875 126.386719 67.855469 C 132.417969 75.835938 139.117188 83.210938 146.480469 89.984375 C 152.957031 95.921875 159.71875 101.25 168.738281 102.21875 C 179.121094 103.324219 189.753906 100 199.808594 97.859375 C 221.820312 93.183594 245.839844 88.511719 267.785156 96.078125 C 275.363281 98.691406 283.96875 105.339844 292.304688 101.722656 C 300.136719 98.328125 305.132812 88.460938 309.707031 81.859375 C 316.628906 71.847656 323.367188 61.699219 329.921875 51.421875 C 332.992188 46.609375 336.023438 41.765625 339.007812 36.886719 C 340.460938 34.53125 346.761719 21.332031 349.234375 22.003906 C 350.371094 22.308594 352.371094 28.476562 352.695312 29.269531 C 353.859375 32.042969 354.863281 34.878906 355.742188 37.789062 C 357.332031 43.003906 358.535156 48.324219 359.621094 53.667969 C 362.042969 65.5 364.3125 77.40625 365.917969 89.378906 C 367.519531 101.488281 368.3125 113.738281 367.082031 125.910156 C 365.851562 138.078125 360.921875 149.371094 359.359375 161.445312 C 358.132812 170.886719 360.78125 179.496094 364.445312 188.089844 C 369.09375 199.023438 373.472656 209.605469 375.320312 221.417969 C 377.242188 233.738281 376.980469 246.011719 374.53125 258.238281 C 373.984375 260.941406 373.339844 263.621094 372.59375 266.277344 C 372.273438 267.390625 371.0625 273.6875 369.988281 274.132812 C 370.039062 274.132812 366.441406 263.539062 365.929688 262.332031 C 359.710938 247.722656 345.140625 236.9375 329.203125 243.800781 C 321.003906 247.328125 314.46875 253.757812 307.171875 258.722656 C 298.320312 264.746094 289.101562 266.902344 278.480469 265.128906 C 268.511719 263.46875 259.097656 258.726562 254.253906 249.558594 C 249.890625 241.375 248.59375 231.8125 247.320312 222.757812 C 244.207031 200.679688 243.050781 178.757812 241.390625 156.554688 C 240.621094 146.289062 240.128906 135.203125 237.097656 125.292969 C 235.023438 118.511719 230.691406 111.902344 223.371094 110.125 C 216.289062 108.40625 210.15625 113.167969 206.34375 118.726562 C 200.722656 126.90625 200.082031 137.242188 199.109375 146.824219 C 197.933594 158.449219 197.199219 169.621094 197.980469 181.320312 C 198.722656 192.464844 200.050781 203.605469 200.050781 214.820312 C 200.050781 225.90625 198.867188 238.738281 190.941406 247.28125 C 183.929688 254.832031 172.90625 257.046875 163.027344 257.609375 C 142.386719 258.789062 122.0625 249.894531 101.488281 253.03125 C 92.910156 254.339844 85.015625 257.875 79.332031 264.535156 C 78.957031 264.972656 79.59375 265.613281 79.964844 265.171875 Z M 79.925781 265.167969 " fill-opacity="1" fill-rule="nonzero"/><path fill="rgb(96.859741%, 24.308777%, 22.349548%)" d="M 102.351562 21.007812 C 99.894531 31.515625 98.183594 42.144531 97.226562 52.890625 C 96.269531 63.640625 96.070312 74.402344 96.628906 85.179688 C 97.191406 95.957031 98.503906 106.644531 100.570312 117.234375 C 102.640625 127.828125 105.441406 138.222656 108.976562 148.417969 L 97.125 156.585938 C 96.667969 156.964844 96.148438 157.199219 95.5625 157.289062 C 94.109375 157.382812 93.316406 155.734375 92.898438 154.382812 C 82.089844 118.636719 82.804688 79.863281 92.5 43.804688 C 94.511719 36.304688 96.988281 28.722656 101.949219 22.769531 " fill-opacity="1" fill-rule="nonzero"/><path fill="rgb(96.859741%, 24.308777%, 22.349548%)" d="M 101.921875 20.886719 C 100.003906 29.09375 98.539062 37.378906 97.53125 45.75 C 96.523438 54.117188 95.972656 62.515625 95.886719 70.941406 C 95.800781 79.371094 96.175781 87.777344 97.011719 96.164062 C 97.847656 104.550781 99.140625 112.867188 100.890625 121.113281 C 102.105469 126.832031 103.539062 132.492188 105.1875 138.101562 C 105.875 140.4375 107.875 144.070312 107.828125 146.460938 C 107.765625 149.695312 105.085938 150.5625 102.804688 152.117188 C 101.507812 153.011719 98.375 156.125 96.875 156.199219 C 92.597656 156.40625 92.253906 150.691406 91.523438 147.902344 C 90.039062 142.25 88.832031 136.519531 87.898438 130.75 C 85.933594 118.472656 85.140625 106.125 85.523438 93.699219 C 85.898438 81.25 87.351562 68.929688 89.882812 56.734375 C 92.269531 45.15625 94.855469 32.59375 102.261719 23.078125 C 102.609375 22.628906 101.980469 21.988281 101.625 22.445312 C 93.683594 32.648438 91.007812 46.230469 88.585938 58.652344 C 85.660156 73.488281 84.332031 88.464844 84.597656 103.585938 C 84.855469 118.308594 86.792969 132.808594 90.414062 147.082031 C 91.046875 149.566406 91.601562 157.375 95.449219 157.738281 C 96.71875 157.851562 98.050781 156.460938 99.046875 155.800781 C 102.503906 153.589844 105.832031 151.136719 109.222656 148.808594 C 109.410156 148.6875 109.480469 148.519531 109.433594 148.300781 C 105.933594 138.117188 103.164062 127.738281 101.113281 117.164062 C 99.066406 106.59375 97.761719 95.929688 97.199219 85.175781 C 96.640625 74.421875 96.828125 63.679688 97.765625 52.953125 C 98.707031 42.226562 100.382812 31.617188 102.804688 21.121094 C 102.933594 20.558594 102.070312 20.324219 101.941406 20.886719 Z M 101.921875 20.886719 " fill-opacity="1" fill-rule="nonzero"/><path fill="rgb(96.859741%, 24.308777%, 22.349548%)" d="M 347.933594 21.007812 C 350.390625 31.515625 352.101562 42.140625 353.0625 52.890625 C 354.019531 63.640625 354.21875 74.402344 353.660156 85.179688 C 353.101562 95.957031 351.785156 106.644531 349.71875 117.234375 C 347.648438 127.828125 344.847656 138.222656 341.3125 148.417969 L 353.160156 156.574219 C 353.617188 156.953125 354.136719 157.1875 354.722656 157.277344 C 356.175781 157.375 356.972656 155.722656 357.386719 154.371094 C 368.195312 118.628906 367.480469 79.851562 357.785156 43.792969 C 355.773438 36.316406 353.277344 28.734375 348.335938 22.769531 " fill-opacity="1" fill-rule="nonzero"/><path fill="rgb(96.859741%, 24.308777%, 22.349548%)" d="M 347.507812 21.121094 C 349.925781 31.617188 351.605469 42.226562 352.542969 52.953125 C 353.480469 63.683594 353.671875 74.425781 353.113281 85.179688 C 352.550781 95.933594 351.246094 106.597656 349.199219 117.167969 C 347.152344 127.742188 344.378906 138.121094 340.882812 148.304688 C 340.835938 148.523438 340.90625 148.691406 341.089844 148.816406 L 350.414062 155.222656 C 351.425781 155.917969 353.441406 157.9375 354.863281 157.722656 C 358.515625 157.167969 358.953125 150.734375 359.628906 148.140625 C 363.417969 133.523438 365.441406 118.667969 365.703125 103.570312 C 365.96875 88.824219 364.707031 74.203125 361.921875 59.71875 C 359.5 46.96875 356.824219 32.902344 348.675781 22.414062 C 348.320312 21.960938 347.703125 22.601562 348.039062 23.050781 C 355.449219 32.566406 358.03125 45.125 360.414062 56.707031 C 362.945312 68.898438 364.398438 81.222656 364.777344 93.667969 C 365.15625 106.09375 364.367188 118.445312 362.402344 130.71875 C 361.464844 136.488281 360.261719 142.222656 358.777344 147.875 C 358.046875 150.660156 357.703125 156.378906 353.421875 156.167969 C 351.925781 156.097656 348.789062 152.980469 347.496094 152.089844 C 345.238281 150.535156 342.554688 149.667969 342.492188 146.441406 C 342.441406 144.050781 344.429688 140.417969 345.132812 138.085938 C 346.785156 132.480469 348.21875 126.816406 349.429688 121.09375 C 351.714844 110.316406 353.21875 99.429688 353.945312 88.4375 C 355.425781 65.636719 353.574219 43.109375 348.398438 20.855469 C 348.273438 20.292969 347.429688 20.53125 347.535156 21.09375 Z M 347.507812 21.121094 " fill-opacity="1" fill-rule="nonzero"/><path fill="rgb(96.859741%, 24.308777%, 22.349548%)" d="M 203.660156 325.597656 C 202.855469 328.203125 203.824219 330.992188 204.917969 333.488281 C 206.902344 338.023438 209.304688 342.320312 212.128906 346.386719 C 215.554688 351.308594 220.503906 356.230469 226.488281 355.816406 C 232.054688 355.429688 236.179688 350.566406 239.050781 345.785156 C 241.910156 341.027344 244.210938 336.011719 245.953125 330.742188 C 246.28125 329.742188 246.589844 328.644531 246.214844 327.65625 C 245.84375 326.890625 245.304688 326.265625 244.605469 325.785156 L 228.90625 312.914062 C 228.125 312.175781 227.226562 311.628906 226.214844 311.265625 C 223.019531 310.367188 220.324219 313.558594 218.171875 316.082031 C 215.925781 318.710938 213.339844 320.941406 210.410156 322.78125 C 207.484375 324.621094 204.351562 325.984375 201.007812 326.871094 " fill-opacity="1" fill-rule="nonzero"/><path fill="rgb(96.859741%, 24.308777%, 22.349548%)" d="M 203.226562 325.480469 C 202.335938 331.449219 205.917969 337.191406 208.882812 342.152344 C 211.847656 347.113281 215.59375 352.871094 221.167969 355.230469 C 231.914062 359.847656 239.058594 347.597656 242.839844 339.601562 C 244.441406 336.242188 248.113281 330.535156 246.234375 326.898438 C 245.039062 324.585938 241.613281 322.769531 239.65625 321.164062 C 236.199219 318.332031 232.828125 315.175781 229.191406 312.585938 C 226.417969 310.609375 224.429688 309.984375 221.4375 312.054688 C 218.449219 314.128906 216.566406 317.386719 213.824219 319.699219 C 209.96875 322.855469 205.640625 325.097656 200.839844 326.425781 C 200.726562 326.464844 200.644531 326.535156 200.589844 326.640625 C 200.53125 326.746094 200.519531 326.855469 200.550781 326.96875 C 200.582031 327.085938 200.648438 327.171875 200.75 327.234375 C 200.851562 327.296875 200.960938 327.316406 201.078125 327.292969 C 207.996094 325.261719 213.550781 321.652344 218.445312 316.386719 C 219.179688 315.492188 219.957031 314.636719 220.773438 313.816406 C 224.617188 311.136719 227.789062 311.414062 230.285156 314.648438 C 232.039062 316.0625 233.773438 317.507812 235.519531 318.9375 C 239.585938 322.269531 246.253906 325.582031 245.132812 331.589844 C 243.554688 340.046875 235.191406 355.28125 225.523438 355.070312 C 218.914062 354.929688 214.660156 349.476562 211.285156 344.414062 C 207.914062 339.351562 203.152344 332.027344 204.078125 325.71875 C 204.160156 325.152344 203.296875 324.910156 203.207031 325.480469 Z M 203.226562 325.480469 " fill-opacity="1" fill-rule="nonzero"/><path fill="rgb(24.708557%, 11.759949%, 11.369324%)" d="M 175.902344 235.160156 C 181.886719 238.675781 187.308594 229.378906 181.335938 225.867188 C 172.96875 220.949219 162.488281 221.089844 153.125 222.402344 C 143.519531 223.746094 134.9375 227.949219 129.699219 236.347656 C 126.023438 242.242188 135.332031 247.648438 138.996094 241.777344 C 142.792969 235.6875 149.703125 233.386719 156.558594 232.761719 C 162.953125 232.179688 170.207031 231.8125 175.902344 235.160156 Z M 175.902344 235.160156 " fill-opacity="1" fill-rule="nonzero"/><path fill="rgb(24.708557%, 11.759949%, 11.369324%)" d="M 283.222656 205.699219 C 275.046875 210.453125 273.261719 220.175781 273.53125 228.925781 C 273.566406 229.945312 273.644531 231.003906 273.78125 232.078125 C 273.910156 236.644531 274.949219 240.996094 276.890625 245.132812 C 280.28125 252.207031 287.101562 258.25 295.421875 256.09375 C 304.347656 253.777344 308.425781 244.757812 309.691406 236.378906 C 310.976562 227.902344 311.519531 217.574219 306.09375 210.351562 C 305.449219 209.503906 304.734375 208.722656 303.949219 208.003906 C 303.164062 207.285156 302.320312 206.644531 301.417969 206.078125 C 300.515625 205.511719 299.570312 205.03125 298.582031 204.636719 C 297.59375 204.242188 296.578125 203.9375 295.535156 203.726562 C 294.492188 203.511719 293.4375 203.394531 292.375 203.375 C 291.308594 203.351562 290.25 203.425781 289.199219 203.59375 C 288.148438 203.761719 287.121094 204.023438 286.117188 204.378906 C 285.113281 204.730469 284.148438 205.171875 283.222656 205.699219 Z M 283.222656 205.699219 " fill-opacity="1" fill-rule="nonzero"/><path fill="rgb(24.708557%, 11.759949%, 11.369324%)" d="M 362.378906 164.800781 C 362.785156 164.324219 363.109375 163.792969 363.347656 163.210938 C 373.453125 138.707031 374.226562 111.828125 372.488281 85.699219 C 370.667969 58.292969 366.039062 32.226562 352.515625 7.980469 C 350.09375 3.644531 344.214844 5.144531 342.683594 9.269531 C 336.539062 25.796875 328.855469 41.578125 319.628906 56.609375 C 310.816406 70.953125 300.875 85.359375 288.394531 96.816406 C 278.304688 93.011719 267.9375 90.230469 257.296875 88.46875 C 246.65625 86.703125 235.949219 85.996094 225.167969 86.34375 C 214.386719 85.992188 203.671875 86.699219 193.027344 88.460938 C 182.382812 90.222656 172.015625 93.003906 161.917969 96.808594 C 149.4375 85.375 139.5 70.96875 130.683594 56.597656 C 121.464844 41.574219 113.789062 25.804688 107.648438 9.28125 C 106.117188 5.164062 100.21875 3.671875 97.8125 7.992188 C 84.289062 32.242188 79.664062 58.308594 77.84375 85.714844 C 76.109375 111.828125 76.875 138.707031 86.980469 163.226562 C 87.226562 163.832031 87.566406 164.382812 87.996094 164.875 C 67.367188 207.070312 63.71875 258.742188 83.351562 301.925781 C 88.382812 312.871094 94.824219 322.914062 102.671875 332.054688 C 102.101562 344.261719 101.75 356.910156 105.871094 368.59375 C 109.957031 380.164062 117.84375 388.203125 127.890625 394.925781 C 147.710938 408.207031 170.898438 415.6875 194.621094 417.371094 C 194.746094 418.304688 194.910156 419.230469 195.117188 420.148438 C 195.320312 421.066406 195.570312 421.972656 195.855469 422.867188 C 196.144531 423.761719 196.472656 424.644531 196.839844 425.507812 C 197.207031 426.375 197.609375 427.222656 198.054688 428.050781 C 198.496094 428.882812 198.976562 429.691406 199.492188 430.476562 C 200.007812 431.261719 200.558594 432.023438 201.144531 432.761719 C 201.730469 433.5 202.347656 434.207031 202.996094 434.886719 C 203.644531 435.570312 204.320312 436.222656 205.027344 436.839844 C 205.734375 437.460938 206.46875 438.050781 207.226562 438.601562 C 207.988281 439.15625 208.773438 439.675781 209.578125 440.160156 C 210.386719 440.644531 211.210938 441.089844 212.058594 441.5 C 212.90625 441.910156 213.769531 442.28125 214.648438 442.613281 C 215.53125 442.945312 216.421875 443.234375 217.328125 443.488281 C 218.238281 443.738281 219.152344 443.949219 220.078125 444.117188 C 221.003906 444.285156 221.933594 444.414062 222.871094 444.5 C 223.808594 444.582031 224.746094 444.625 225.6875 444.628906 C 226.628906 444.628906 227.566406 444.585938 228.503906 444.503906 C 229.441406 444.417969 230.371094 444.292969 231.296875 444.125 C 232.222656 443.957031 233.140625 443.75 234.046875 443.5 C 234.953125 443.25 235.847656 442.957031 236.730469 442.628906 C 237.609375 442.296875 238.472656 441.929688 239.320312 441.519531 C 240.167969 441.113281 240.996094 440.667969 241.804688 440.183594 C 242.609375 439.699219 243.394531 439.183594 244.15625 438.628906 C 244.917969 438.074219 245.652344 437.488281 246.359375 436.871094 C 247.066406 436.25 247.746094 435.601562 248.394531 434.921875 C 249.042969 434.238281 249.660156 433.53125 250.246094 432.796875 C 250.832031 432.058594 251.386719 431.300781 251.902344 430.511719 C 252.417969 429.726562 252.898438 428.921875 253.34375 428.089844 C 253.789062 427.261719 254.195312 426.414062 254.5625 425.550781 C 254.933594 424.683594 255.261719 423.804688 255.550781 422.910156 C 255.839844 422.015625 256.085938 421.109375 256.292969 420.191406 C 256.5 419.273438 256.667969 418.347656 256.792969 417.414062 C 280.722656 415.8125 304.132812 408.316406 324.117188 394.925781 C 333.875 388.390625 341.625 380.65625 345.796875 369.5 C 350.417969 357.144531 349.894531 343.652344 349.269531 330.707031 C 349.25 330.480469 349.21875 330.253906 349.171875 330.03125 C 369.699219 304.5625 379.214844 273.027344 379.667969 239.921875 C 380.019531 213.707031 373.894531 188.058594 362.378906 164.800781 Z M 195.050781 406.644531 C 184.714844 405.945312 174.617188 404.003906 164.757812 400.828125 C 154.894531 397.648438 145.566406 393.328125 136.765625 387.863281 C 127.515625 382.09375 119.492188 375.453125 115.945312 364.792969 C 113.59375 357.726562 113.035156 350.351562 113.074219 342.964844 C 123.410156 352.734375 134.953125 360.765625 147.707031 367.054688 C 169.078125 377.546875 192.441406 382.441406 216.0625 383.40625 C 214.761719 383.832031 213.496094 384.335938 212.261719 384.925781 C 211.023438 385.515625 209.832031 386.183594 208.683594 386.925781 C 207.535156 387.671875 206.441406 388.488281 205.398438 389.375 C 204.359375 390.261719 203.378906 391.214844 202.460938 392.226562 C 201.542969 393.242188 200.695312 394.3125 199.917969 395.4375 C 199.136719 396.5625 198.4375 397.734375 197.8125 398.953125 C 197.183594 400.167969 196.640625 401.421875 196.179688 402.710938 C 195.71875 403.996094 195.339844 405.308594 195.050781 406.644531 Z M 225.710938 433.859375 C 225.039062 433.859375 224.363281 433.824219 223.691406 433.757812 C 223.019531 433.691406 222.355469 433.59375 221.691406 433.460938 C 221.03125 433.332031 220.378906 433.167969 219.730469 432.972656 C 219.085938 432.777344 218.453125 432.546875 217.828125 432.289062 C 217.207031 432.03125 216.597656 431.746094 216 431.425781 C 215.40625 431.109375 214.828125 430.761719 214.265625 430.386719 C 213.707031 430.011719 213.164062 429.613281 212.644531 429.183594 C 212.121094 428.757812 211.621094 428.304688 211.144531 427.828125 C 210.667969 427.351562 210.214844 426.851562 209.789062 426.328125 C 209.359375 425.808594 208.957031 425.265625 208.582031 424.707031 C 208.207031 424.144531 207.863281 423.566406 207.542969 422.972656 C 207.226562 422.378906 206.9375 421.769531 206.679688 421.144531 C 206.421875 420.523438 206.191406 419.890625 205.996094 419.242188 C 205.800781 418.597656 205.636719 417.945312 205.503906 417.28125 C 205.375 416.621094 205.273438 415.957031 205.207031 415.285156 C 205.140625 414.613281 205.109375 413.941406 205.109375 413.265625 C 205.109375 412.589844 205.140625 411.917969 205.207031 411.246094 C 205.273438 410.574219 205.371094 409.910156 205.503906 409.246094 C 205.632812 408.585938 205.796875 407.933594 205.992188 407.285156 C 206.1875 406.640625 206.414062 406.007812 206.671875 405.382812 C 206.929688 404.761719 207.21875 404.152344 207.539062 403.554688 C 207.855469 402.960938 208.203125 402.382812 208.574219 401.820312 C 208.949219 401.261719 209.351562 400.71875 209.777344 400.199219 C 210.207031 399.675781 210.660156 399.175781 211.136719 398.699219 C 211.613281 398.222656 212.113281 397.769531 212.632812 397.34375 C 213.15625 396.914062 213.695312 396.511719 214.257812 396.136719 C 214.816406 395.761719 215.394531 395.414062 215.988281 395.097656 C 216.585938 394.777344 217.195312 394.492188 217.816406 394.230469 C 218.441406 393.972656 219.074219 393.746094 219.71875 393.550781 C 220.367188 393.355469 221.019531 393.191406 221.679688 393.058594 C 222.34375 392.925781 223.007812 392.828125 223.679688 392.761719 C 224.351562 392.695312 225.023438 392.660156 225.699219 392.660156 C 226.375 392.660156 227.046875 392.691406 227.71875 392.757812 C 228.390625 392.824219 229.054688 392.921875 229.71875 393.054688 C 230.378906 393.183594 231.035156 393.347656 231.679688 393.542969 C 232.324219 393.738281 232.960938 393.964844 233.582031 394.222656 C 234.207031 394.480469 234.816406 394.769531 235.410156 395.085938 C 236.007812 395.402344 236.585938 395.75 237.144531 396.121094 C 237.707031 396.496094 238.25 396.898438 238.769531 397.324219 C 239.292969 397.753906 239.792969 398.207031 240.269531 398.683594 C 240.746094 399.160156 241.199219 399.65625 241.628906 400.179688 C 242.054688 400.699219 242.457031 401.238281 242.832031 401.800781 C 243.207031 402.359375 243.554688 402.9375 243.875 403.535156 C 244.191406 404.128906 244.480469 404.738281 244.742188 405.359375 C 245 405.984375 245.226562 406.617188 245.421875 407.261719 C 245.621094 407.90625 245.785156 408.5625 245.914062 409.222656 C 246.046875 409.882812 246.148438 410.550781 246.214844 411.222656 C 246.28125 411.890625 246.316406 412.566406 246.316406 413.238281 C 246.316406 413.914062 246.28125 414.585938 246.214844 415.257812 C 246.148438 415.929688 246.050781 416.597656 245.917969 417.257812 C 245.785156 417.921875 245.625 418.574219 245.425781 419.21875 C 245.230469 419.867188 245.003906 420.5 244.746094 421.125 C 244.488281 421.746094 244.199219 422.355469 243.882812 422.953125 C 243.5625 423.546875 243.21875 424.125 242.84375 424.6875 C 242.46875 425.25 242.066406 425.789062 241.636719 426.3125 C 241.210938 426.832031 240.757812 427.332031 240.28125 427.8125 C 239.804688 428.289062 239.304688 428.742188 238.78125 429.167969 C 238.261719 429.597656 237.71875 430 237.160156 430.375 C 236.597656 430.75 236.019531 431.097656 235.425781 431.414062 C 234.828125 431.734375 234.21875 432.023438 233.597656 432.28125 C 232.972656 432.539062 232.339844 432.769531 231.695312 432.964844 C 231.046875 433.160156 230.394531 433.324219 229.730469 433.457031 C 229.070312 433.589844 228.402344 433.691406 227.730469 433.757812 C 227.058594 433.824219 226.386719 433.855469 225.710938 433.859375 Z M 336.359375 363.886719 C 332.898438 375.03125 324.828125 381.878906 315.234375 387.863281 C 306.351562 393.382812 296.929688 397.730469 286.96875 400.917969 C 277.007812 404.101562 266.8125 406.023438 256.375 406.683594 C 256.082031 405.335938 255.703125 404.015625 255.238281 402.71875 C 254.769531 401.421875 254.222656 400.160156 253.589844 398.933594 C 252.957031 397.707031 252.25 396.53125 251.460938 395.398438 C 250.675781 394.265625 249.820312 393.1875 248.890625 392.167969 C 247.960938 391.148438 246.972656 390.195312 245.917969 389.304688 C 244.867188 388.414062 243.757812 387.597656 242.597656 386.855469 C 241.4375 386.109375 240.234375 385.445312 238.984375 384.859375 C 237.738281 384.273438 236.457031 383.769531 235.140625 383.355469 C 273.589844 381.460938 311.046875 368.6875 338.917969 341.328125 C 339.058594 348.949219 338.644531 356.558594 336.359375 363.886719 Z M 297.804688 357.472656 C 276.847656 367.890625 253.660156 372.238281 230.421875 372.789062 C 229.589844 372.789062 228.757812 372.816406 227.925781 372.828125 L 226.066406 372.828125 C 225.035156 372.828125 224 372.828125 222.96875 372.828125 L 222.644531 372.828125 C 183.050781 372.265625 144.175781 360.066406 116.164062 330.84375 C 92.699219 306.375 82.074219 274.546875 81.433594 240.796875 C 80.820312 208.398438 90.640625 177.308594 108.679688 150.480469 C 112.558594 144.722656 96.082031 150.113281 94.554688 152.710938 C 87.703125 131.878906 87.128906 109.753906 88.464844 87.871094 C 89.832031 65.53125 93.019531 44.085938 101.925781 23.882812 C 107.441406 37.105469 113.9375 49.828125 121.410156 62.054688 C 129.886719 75.851562 139.460938 89.863281 151.089844 101.34375 C 144.078125 104.574219 130.335938 125.566406 136.175781 121.785156 C 142.332031 117.800781 148.738281 114.273438 155.398438 111.203125 C 162.054688 108.132812 168.898438 105.546875 175.925781 103.453125 C 182.953125 101.355469 190.09375 99.769531 197.347656 98.691406 C 204.601562 97.613281 211.894531 97.054688 219.226562 97.015625 C 219.84375 97.207031 220.472656 97.28125 221.117188 97.246094 C 222.46875 97.167969 223.8125 97.132812 225.164062 97.089844 C 226.511719 97.132812 227.859375 97.167969 229.207031 97.246094 C 229.847656 97.28125 230.480469 97.207031 231.09375 97.015625 C 238.429688 97.054688 245.722656 97.613281 252.976562 98.691406 C 260.230469 99.769531 267.371094 101.355469 274.398438 103.453125 C 281.425781 105.546875 288.269531 108.132812 294.925781 111.203125 C 301.585938 114.273438 307.992188 117.800781 314.148438 121.785156 C 319.964844 125.554688 306.25 104.574219 299.234375 101.34375 C 310.863281 89.863281 320.4375 75.851562 328.914062 62.054688 C 336.390625 49.832031 342.882812 37.109375 348.398438 23.882812 C 357.304688 44.09375 360.511719 65.546875 361.859375 87.871094 C 363.195312 109.757812 362.621094 131.859375 355.773438 152.710938 C 354.222656 150.121094 337.765625 144.710938 341.644531 150.480469 C 357.929688 174.703125 367.75 202.53125 368.8125 231.78125 C 369.601562 253.582031 366.421875 277.292969 357.304688 297.304688 C 345.382812 323.457031 323.378906 344.765625 297.808594 357.472656 Z M 297.804688 357.472656 " fill-opacity="1" fill-rule="nonzero"/><path fill="rgb(24.708557%, 11.759949%, 11.369324%)" d="M 281.851562 301.210938 C 281.542969 313.320312 267.453125 321.070312 256.65625 321.121094 C 245.589844 321.183594 235.984375 314.453125 230.355469 305.3125 C 235.949219 302.644531 240.96875 298.558594 243.191406 292.621094 C 246.902344 282.675781 238.726562 278.402344 230.144531 277.464844 C 223.066406 276.691406 208.433594 276.042969 205.867188 284.886719 C 203.71875 292.316406 212.03125 299.542969 217.5 304.683594 C 211.925781 314.140625 202.148438 321.183594 190.847656 321.121094 C 180.03125 321.0625 165.9375 313.320312 165.652344 301.210938 C 165.472656 294.296875 154.710938 294.273438 154.886719 301.210938 C 155.316406 318.085938 171.699219 330.136719 187.425781 331.683594 C 190.523438 331.984375 193.609375 331.898438 196.683594 331.414062 C 201.308594 344.011719 209.601562 361.761719 224.785156 362.367188 C 240.632812 363 250.332031 344.796875 253.984375 331.769531 C 256.039062 331.910156 258.085938 331.882812 260.136719 331.683594 C 275.859375 330.136719 292.242188 318.085938 292.671875 301.210938 C 292.789062 294.28125 282.027344 294.285156 281.851562 301.210938 Z M 224.585938 351.523438 C 215.429688 350.386719 209.835938 336.371094 206.921875 328.269531 C 210.238281 326.734375 213.316406 324.820312 216.160156 322.523438 C 219.003906 320.230469 221.527344 317.625 223.730469 314.707031 C 226.238281 318.046875 229.167969 320.972656 232.511719 323.484375 C 235.855469 325.992188 239.480469 327.984375 243.394531 329.457031 C 241.078125 337.375 234.640625 352.78125 224.585938 351.523438 Z M 224.585938 351.523438 " fill-opacity="1" fill-rule="nonzero"/></svg>